<?xml version="1.0" encoding="utf-8"?>
<!-- Generator: Adobe Illustrator 24.2.0, SVG Export Plug-In . SVG Version: 6.00 Build 0)  -->
<svg version="1.1" id="레이어_1" xmlns="http://www.w3.org/2000/svg" xmlns:xlink="http://www.w3.org/1999/xlink" x="0px"
	 y="0px" viewBox="0 0 576.5 239.9" style="enable-background:new 0 0 576.5 239.9;" xml:space="preserve">
<style type="text/css">
	.st0{fill:#FFFFFF;}
	.st1{fill-rule:evenodd;clip-rule:evenodd;fill:#DB3F14;}
	.st2{fill:#DB3F14;}
</style>
<g>
	<path class="st0" d="M24.5,206.9c-2.5,2.6-5.7,4-9.6,4c-4.6,0-8.3-1.9-10.9-5.6c-2.4-3.3-3.6-7.5-3.6-12.4c0-5,1.2-9.2,3.6-12.5
		c2.6-3.7,6.3-5.5,10.9-5.5c4.1,0,7.4,1.5,10.1,4.5c2.3,2.7,3.8,6.3,4.3,10.6h3.3v-14.8H42V220h-9.4v-22.6h-3.5
		C28.4,201.4,26.9,204.6,24.5,206.9z M16.6,230.1h40.1v7H15.5c-3.1,0-5.3-0.5-6.6-1.6S7,232.7,7,230.2V216h9.6V230.1z M10.6,185.2
		c-0.9,2-1.4,4.6-1.4,7.7c0,3.1,0.5,5.6,1.4,7.7c1,2.3,2.5,3.4,4.4,3.4c1.8,0,3.3-1.1,4.3-3.4c1-2,1.5-4.6,1.5-7.7
		c0-3.1-0.5-5.6-1.5-7.7c-1-2.3-2.5-3.4-4.3-3.4S11.7,182.9,10.6,185.2z M56.2,175.2v47h-9.4v-47H56.2z"/>
</g>
<g>
	<path class="st0" d="M110.8,196.1c3.9,4.2,9.5,7.5,17,9.9l-4.3,5.5c-6.1-2-11.1-4.3-15-6.9c-4.1-2.7-7.3-5.9-9.7-9.5
		c-2.2,3.6-5.4,6.8-9.4,9.5c-3.9,2.6-8.9,4.9-15.1,6.9l-3.8-5.5c7.1-2.4,12.6-5.8,16.5-10c4.8-5.3,7.2-12,7.2-20.3h9.6
		C103.7,184.1,106.1,190.9,110.8,196.1z M127.2,226.4v6.9H70.9v-6.9H127.2z"/>
</g>
<g>
	<path class="st0" d="M164,176.3v6.9h-12.8v3.8h9.8v6.9h-9.8v4.7h19.2v-4h-6.1v-7.1h6.1v-12.2h9.5v31.3h-9.5v-1.2h-19.7
		c-3.2,0-5.5-0.6-6.9-1.7c-1.5-1.2-2.2-3.1-2.2-5.7v-21.7H164z M194.8,210v16.8h-39.6v3.3h40.2v7h-41c-2.9,0-5.1-0.6-6.6-1.8
		s-2.3-2.9-2.3-5.1v-10.5h39.6v-2.9h-39.6V210H194.8z M194.8,175.2v31.3h-9.5v-31.3H194.8z"/>
</g>
<g>
	<path class="st0" d="M244.9,176.5v6.9h-12c0,5.1,1.6,9.6,4.9,13.7c2.7,3.4,6.2,6.1,10.5,8.1l-4.4,5.4c-3.2-1.4-6.2-3.2-8.9-5.3
		c-3-2.3-5.3-4.6-6.9-6.9c-1.5,2.3-3.8,4.6-6.8,6.9c-2.8,2.1-5.8,3.8-9,5.3l-3.9-5.4c4.3-1.9,7.8-4.6,10.5-8.1
		c3-3.9,4.6-8.5,4.6-13.7h-11.6v-6.9H244.9z M257.8,217c4.2,2.5,6.2,5.6,6.2,9.2c0,3.6-2.1,6.6-6.3,9.1c-4.6,2.8-11,4.2-19,4.2
		s-14.3-1.4-18.9-4.2c-4.1-2.5-6.2-5.5-6.2-9.1s2.1-6.7,6.2-9.2c4.7-2.8,11-4.2,18.9-4.2C246.8,212.8,253.2,214.2,257.8,217z
		 M227.1,221.8c-2.5,1.2-3.8,2.6-3.8,4.4c0,1.7,1.3,3.1,3.8,4.3c2.8,1.3,6.7,2,11.6,2c5,0,8.9-0.7,11.8-2c2.6-1.2,3.8-2.6,3.8-4.3
		s-1.3-3.2-3.8-4.4c-2.9-1.3-6.8-2-11.8-2C233.8,219.8,230,220.5,227.1,221.8z M263.1,210.8h-9.6v-14.6h-10.3v-6.9h10.3v-14.1h9.6
		V210.8z"/>
</g>
<g>
	<path class="st0" d="M291.6,175.7v8.6h30.7v-8.6h9.6v34.5h-19.8v16.2h23v6.9h-56.4v-6.9h23.8v-16.2h-11.8c-3.1,0-5.3-0.6-6.8-1.7
		c-1.3-1.1-2-2.8-2-5.2v-27.6H291.6z M291.6,191.2v12.2h30.7v-12.2H291.6z"/>
</g>
<g>
	<path class="st0" d="M401.2,176.3v7h-40.3v2.5H401v7h-40.1v3h40.9v6.9h-20.9v4.4h23.5v7H348v-7h23.2v-4.4h-10.9
		c-3.2,0-5.5-0.6-7-1.8s-2.2-3.2-2.2-5.9v-18.8h50.1V176.3z M395.1,219.1c4.1,2.3,6.2,5,6.2,8.3s-2.1,6-6.2,8.3
		c-4.6,2.6-10.8,3.8-18.5,3.8c-7.9,0-14.2-1.3-18.7-3.8c-4.1-2.3-6.1-5-6.1-8.3s2-6.1,6.1-8.3c4.6-2.5,10.8-3.8,18.7-3.8
		C384.4,215.3,390.5,216.6,395.1,219.1z M365.1,224c-2.5,1-3.7,2.1-3.7,3.5c0,1.3,1.2,2.4,3.7,3.3c2.8,1,6.7,1.6,11.6,1.6
		c4.7,0,8.4-0.5,11.2-1.6c2.5-0.9,3.7-2,3.7-3.3c0-1.4-1.2-2.6-3.7-3.5c-2.7-1-6.5-1.5-11.2-1.5C371.8,222.5,367.9,223,365.1,224z"
		/>
</g>
<g>
	<path class="st0" d="M445.9,196.7c2.6,4,6.4,7.2,11.3,9.4l-4.6,5.5c-3.8-2-7.2-4.3-10.2-7c-3.1-2.8-5.3-5.4-6.4-7.9
		c-1.3,2.5-3.6,5.2-6.7,7.9s-6.4,5-10,6.8l-4-5.3c4.5-2.5,8-5.6,10.5-9.4c3.5-5.4,5.3-12.4,5.3-21h9.7
		C440.7,184.4,442.5,191.4,445.9,196.7z M432.3,230.1h39.1v7h-40.2c-3.1,0-5.3-0.5-6.6-1.6c-1.3-1.1-1.9-2.8-1.9-5.3V217h9.6V230.1z
		 M471,175.2v45.1h-9.6v-45.1L471,175.2L471,175.2z"/>
</g>
<g>
	<path class="st0" d="M497.9,176.5v7.4c-2.6,0-4.1,0.4-4.7,1.1c-0.4,0.6-0.7,2.4-0.7,5.4v32.1l-0.1,0.2c0,2.9,0.2,4.6,0.7,5.2
		c0.5,0.7,2.1,1.1,4.7,1.1v7.4h-4.4c-3.6,0-6-0.9-7.2-2.7c-1.3-1.9-2-5.6-2-11.2v-32.1c0-5.6,0.7-9.4,2-11.3
		c1.3-1.8,3.7-2.7,7.2-2.7h4.5V176.5z"/>
</g>
<g>
	<path class="st0" d="M558.4,217.8h-23.6v20h-9.6v-20H502v-7.1h56.4V217.8z M554.6,176.5v7h-20c0,3.6,2.1,6.8,6.4,9.4
		c4,2.5,9.5,4.3,16.5,5.3l-3.7,5.5c-6.1-1-11.1-2.4-15.1-4.1c-4-1.7-7-3.9-9-6.4c-2,2.5-5,4.7-9,6.4c-3.9,1.7-8.7,3.1-14.4,4.1
		l-3.6-5.5c6.8-1,12.1-2.8,16.1-5.3c4.1-2.6,6.2-5.7,6.2-9.4h-18.9v-7H554.6z"/>
</g>
<g>
	<path class="st0" d="M562.2,176.5h4.4c3.6,0,6,0.9,7.3,2.7c1.3,1.9,2,5.6,2,11.3v32.2c0,5.6-0.7,9.3-2,11.2
		c-1.3,1.7-3.7,2.6-7.4,2.6h-4.4v-7.4c2.6,0,4.1-0.4,4.6-1.1c0.5-0.6,0.7-2.4,0.7-5.3v-32.2c0-3-0.2-4.8-0.7-5.4
		c-0.5-0.7-2.1-1.1-4.6-1.1v-7.5H562.2z"/>
</g>
<path class="st1" d="M566.1,106.5c-31.6-55.4-211-96.4-422.1-96.4c167.1,0,306.1,45.5,319.2,104.5c1.2,5.2,5.8,8.9,11.1,8.9l0,0h82
	c6.3,0,11.3-5.1,11.3-11.3C567.5,110.2,567,108.3,566.1,106.5L566.1,106.5z"/>
<path class="st2" d="M566.1,106.5c-31.6-55.4-211-96.4-422.1-96.4c167.1,0,306.1,45.5,319.2,104.5c1.2,5.2,5.8,8.9,11.1,8.9l0,0h82
	c6.3,0,11.3-5.1,11.3-11.3C567.5,110.2,567,108.3,566.1,106.5L566.1,106.5z"/>
<g>
	<path class="st0" d="M7.9,2.9h44.4v20.3C58.9,14.9,65.7,9,72.4,5.4c6.8-3.6,15.1-5.3,24.8-5.3c13.2,0,23.5,3.9,31,11.8
		s11.2,20,11.2,36.4v79.1H91.5V58.9c0-7.8-1.4-13.3-4.3-16.6c-2.9-3.2-7-4.9-12.2-4.9c-5.8,0-10.5,2.2-14.1,6.6s-5.4,12.2-5.4,23.6
		v59.8H7.9V2.9z"/>
</g>
<g>
	<path class="st0" d="M155.8,106.6l28.4-2.7c1.2,3.4,2.8,5.8,4.9,7.2c2.1,1.5,4.9,2.2,8.4,2.2c3.8,0,6.8-0.8,8.9-2.5
		c1.6-1.2,2.5-2.7,2.5-4.6c0-2.1-1.1-3.7-3.2-4.8c-1.5-0.8-5.6-1.8-12.3-2.9c-9.9-1.7-16.8-3.3-20.7-4.8s-7.1-4-9.8-7.5
		c-2.6-3.5-4-7.5-4-12c0-4.9,1.4-9.2,4.3-12.7c2.9-3.6,6.8-6.2,11.8-8s11.7-2.6,20.2-2.6c8.9,0,15.5,0.7,19.7,2
		c4.2,1.4,7.8,3.5,10.6,6.3c2.8,2.9,5.2,6.7,7.1,11.6l-27.1,2.7c-0.7-2.4-1.9-4.1-3.5-5.3c-2.2-1.5-5-2.3-8.2-2.3s-5.6,0.6-7.1,1.7
		s-2.2,2.5-2.2,4.2c0,1.8,0.9,3.2,2.8,4.1c1.9,0.9,5.9,1.8,12.2,2.5c9.5,1.1,16.6,2.6,21.2,4.5s8.2,4.7,10.6,8.2
		c2.5,3.6,3.7,7.5,3.7,11.7c0,4.3-1.3,8.5-3.9,12.6c-2.6,4.1-6.7,7.3-12.3,9.7c-5.6,2.4-13.2,3.6-22.9,3.6
		c-13.6,0-23.3-1.9-29.1-5.8C161.2,119.3,157.5,113.8,155.8,106.6z"/>
	<path class="st0" d="M282,24.3v28.4h15.7v21H282v26.5c0,3.2,0.3,5.3,0.9,6.3c0.9,1.6,2.6,2.4,4.9,2.4c2.1,0,5.1-0.6,8.9-1.8
		l2.1,19.8c-7.1,1.5-13.7,2.3-19.8,2.3c-7.1,0-12.4-0.9-15.7-2.7c-3.4-1.8-5.9-4.6-7.5-8.3s-2.4-9.7-2.4-18.1V73.7h-10.5v-21h10.5
		V39L282,24.3z"/>
	<path class="st0" d="M394.2,97.1h-57.3c0.5,4.6,1.8,8,3.7,10.3c2.8,3.2,6.4,4.9,10.8,4.9c2.8,0,5.5-0.7,8-2.1
		c1.5-0.9,3.2-2.5,5-4.7l28.2,2.6c-4.3,7.5-9.5,12.9-15.6,16.1c-6.1,3.3-14.8,4.9-26.2,4.9c-9.9,0-17.7-1.4-23.3-4.2
		c-5.7-2.8-10.4-7.2-14.1-13.3c-3.7-6.1-5.6-13.2-5.6-21.4c0-11.7,3.7-21.1,11.2-28.3s17.8-10.8,31-10.8c10.7,0,19.1,1.6,25.3,4.9
		c6.2,3.2,10.9,7.9,14.1,14.1c3.2,6.1,4.8,14.1,4.8,24V97.1z M365.1,83.4c-0.6-5.5-2.1-9.5-4.5-11.9s-5.6-3.6-9.5-3.6
		c-4.5,0-8.2,1.8-10.9,5.4c-1.7,2.3-2.8,5.6-3.3,10.1H365.1z"/>
	<path class="st0" d="M407.1,24.3h28.7v103.1h-28.7V24.3z"/>
</g>
</svg>
