<?xml version="1.0" encoding="UTF-8" standalone="no"?>
<!-- Created with Inkscape (http://www.inkscape.org/) -->

<svg
   xmlns:dc="http://purl.org/dc/elements/1.1/"
   xmlns:cc="http://creativecommons.org/ns#"
   xmlns:rdf="http://www.w3.org/1999/02/22-rdf-syntax-ns#"
   xmlns:svg="http://www.w3.org/2000/svg"
   xmlns="http://www.w3.org/2000/svg"
   xmlns:sodipodi="http://sodipodi.sourceforge.net/DTD/sodipodi-0.dtd"
   xmlns:inkscape="http://www.inkscape.org/namespaces/inkscape"
   width="250"
   height="250"
   viewBox="0 0 66.145832 66.145835"
   version="1.1"
   id="svg10697"
   inkscape:version="0.92.4 (5da689c313, 2019-01-14)"
   sodipodi:docname="swim.svg">
  <defs
     id="defs10691" />
  <sodipodi:namedview
     id="base"
     pagecolor="#ffffff"
     bordercolor="#666666"
     borderopacity="1.0"
     inkscape:pageopacity="0.0"
     inkscape:pageshadow="2"
     inkscape:zoom="1.1078927"
     inkscape:cx="218.37435"
     inkscape:cy="145.76679"
     inkscape:document-units="mm"
     inkscape:current-layer="layer1"
     showgrid="false"
     inkscape:pagecheckerboard="true"
     units="px"
     inkscape:window-width="1366"
     inkscape:window-height="705"
     inkscape:window-x="-8"
     inkscape:window-y="-8"
     inkscape:window-maximized="1" />
  <metadata
     id="metadata10694">
    <rdf:RDF>
      <cc:Work
         rdf:about="">
        <dc:format>image/svg+xml</dc:format>
        <dc:type
           rdf:resource="http://purl.org/dc/dcmitype/StillImage" />
        <dc:title></dc:title>
      </cc:Work>
    </rdf:RDF>
  </metadata>
  <g
     inkscape:label="Layer 1"
     inkscape:groupmode="layer"
     id="layer1"
     transform="translate(0,-230.85415)">
    <g
       id="g12011"
       transform="matrix(3.2087821,0,0,-3.2087821,66.145834,263.92707)"
       style="fill:#2c4c98;fill-opacity:1;stroke-width:0.10994133">
      <path
         d="m 0,0 c 0,-5.692 -4.615,-10.307 -10.307,-10.307 -5.692,0 -10.307,4.615 -10.307,10.307 0,5.692 4.615,10.307 10.307,10.307 C -4.615,10.307 0,5.692 0,0"
         style="fill:#2c4c98;fill-opacity:1;fill-rule:nonzero;stroke:none;stroke-width:0.10994133"
         id="path12013"
         inkscape:connector-curvature="0" />
    </g>
    <g
       id="g12015"
       transform="matrix(3.2087821,0,0,-3.2087821,49.994224,264.67629)"
       style="stroke-width:0.10994133">
      <path
         d="m 0,0 c 0.002,-0.039 0.004,-0.078 0.004,-0.117 0,-0.504 -0.199,-0.963 -0.521,-1.302 0.176,-0.048 0.361,-0.074 0.553,-0.074 0.464,0 0.892,0.152 1.239,0.408 0.346,-0.256 0.774,-0.408 1.239,-0.408 0.549,0 1.048,0.213 1.42,0.56 C 2.666,-0.516 1.351,-0.203 0,0"
         style="fill:#ffffff;fill-opacity:1;fill-rule:nonzero;stroke:none;stroke-width:0.10994133"
         id="path12017"
         inkscape:connector-curvature="0" />
    </g>
    <g
       id="g12019"
       transform="matrix(3.2087821,0,0,-3.2087821,29.878534,261.62221)"
       style="stroke-width:0.10994133">
      <path
         d="m 0,0 c -2.85,-0.228 -5.561,-0.948 -8.047,-2.076 0.336,-0.232 0.744,-0.369 1.184,-0.369 0.464,0 0.892,0.152 1.238,0.409 0.347,-0.257 0.775,-0.409 1.239,-0.409 0.464,0 0.893,0.152 1.239,0.409 0.346,-0.257 0.775,-0.409 1.239,-0.409 0.464,0 0.893,0.152 1.239,0.409 0.346,-0.257 0.775,-0.409 1.239,-0.409 0.845,0 1.55,0.517 1.899,1.228 0.025,0.048 0.046,0.098 0.063,0.151 0.086,0.268 0.065,0.547 -0.069,0.776 C 1.982,0.562 0.429,2.498 0.021,2.702 -0.019,2.724 -0.061,2.743 -0.106,2.757 -0.194,2.785 -0.284,2.794 -0.371,2.786 -0.396,2.784 -0.435,2.777 -0.437,2.777 -0.959,2.694 -2.534,2.255 -2.819,2.121 -3.001,2.043 -3.14,1.875 -3.171,1.664 -3.219,1.34 -2.995,1.039 -2.672,0.991 -2.644,0.987 -2.585,0.983 -2.536,0.987 -2.258,1.01 -1.334,1.179 -0.686,1.325 -0.525,0.998 -0.211,0.397 0,0"
         style="fill:#ffffff;fill-opacity:1;fill-rule:nonzero;stroke:none;stroke-width:0.10994133"
         id="path12021"
         inkscape:connector-curvature="0" />
    </g>
    <g
       id="g12023"
       transform="matrix(3.2087821,0,0,-3.2087821,43.937534,260.63714)"
       style="stroke-width:0.10994133">
      <path
         d="m 0,0 c -0.759,0 -1.376,-0.617 -1.376,-1.376 0,-0.759 0.617,-1.376 1.376,-1.376 0.759,0 1.376,0.617 1.376,1.376 C 1.376,-0.617 0.759,0 0,0"
         style="fill:#ffffff;fill-opacity:1;fill-rule:nonzero;stroke:none;stroke-width:0.10994133"
         id="path12025"
         inkscape:connector-curvature="0" />
    </g>
  </g>
</svg>
